<svg id="Black" xmlns="http://www.w3.org/2000/svg" viewBox="0 0 276.67 30.99"><defs><style>.cls-1{fill:#231f20;}</style></defs><title>TerrorFlatRider Logo</title><g id="TerrorFlatRider"><polygon class="cls-1" points="22.13 0 0 0 0 4.43 8.85 4.43 8.85 30.99 13.28 30.99 13.28 4.43 22.13 4.43 22.13 0"/><polygon class="cls-1" points="174.85 0 170.43 0 170.43 8.85 163.79 8.85 163.79 13.28 170.43 13.28 170.43 30.99 174.85 30.99 174.85 13.28 181.49 13.28 181.49 8.85 174.85 8.85 174.85 0"/><polygon class="cls-1" points="108.45 0 108.45 4.43 108.45 13.28 108.45 17.71 108.45 30.99 112.88 30.99 112.88 17.71 130.59 17.71 130.59 13.28 112.88 13.28 112.88 4.43 130.59 4.43 130.59 0 112.88 0 108.45 0"/><rect class="cls-1" x="132.8" width="4.43" height="30.99"/><path class="cls-1" d="M51.51,42.43V53.49h4.42V42.43a6.64,6.64,0,0,1,6.64-6.64h2.22V31.36H62.57A11.06,11.06,0,0,0,51.51,42.43Z" transform="translate(-11.67 -22.51)"/><path class="cls-1" d="M80.28,31.36H78.07A11.06,11.06,0,0,0,67,42.43V53.49h4.43V42.43a6.64,6.64,0,0,1,6.64-6.64h2.21Z" transform="translate(-11.67 -22.51)"/><path class="cls-1" d="M104.63,42.43V53.49h4.42V42.43a6.64,6.64,0,0,1,6.64-6.64h2.22V31.36h-2.22A11.06,11.06,0,0,0,104.63,42.43Z" transform="translate(-11.67 -22.51)"/><path class="cls-1" d="M286.12,31.36a11.07,11.07,0,0,0-11.07,11.07V53.49h4.43V42.43a6.64,6.64,0,0,1,6.64-6.64h2.21V31.36Z" transform="translate(-11.67 -22.51)"/><path class="cls-1" d="M162.17,31.36a11.07,11.07,0,1,0,6.64,19.92v2.21h4.43V42.43A11.06,11.06,0,0,0,162.17,31.36Zm0,17.71a6.64,6.64,0,1,1,6.64-6.64A6.65,6.65,0,0,1,162.17,49.07Z" transform="translate(-11.67 -22.51)"/><path class="cls-1" d="M244.07,33.57a11.07,11.07,0,1,0,4.42,8.86V22.51h-4.42Zm-6.64,15.5a6.64,6.64,0,1,1,6.64-6.64A6.64,6.64,0,0,1,237.43,49.07Z" transform="translate(-11.67 -22.51)"/><path class="cls-1" d="M38.23,31.36a11.07,11.07,0,1,0,8.85,17.71H38.23A6.64,6.64,0,0,1,32,44.64h17.1a10.83,10.83,0,0,0,.22-2.21A11.06,11.06,0,0,0,38.23,31.36ZM32,40.21a6.64,6.64,0,0,1,12.52,0Z" transform="translate(-11.67 -22.51)"/><path class="cls-1" d="M261.77,31.36a11.07,11.07,0,1,0,8.86,17.71h-8.86a6.64,6.64,0,0,1-6.26-4.43h17.11a11.58,11.58,0,0,0,.22-2.21A11.06,11.06,0,0,0,261.77,31.36Zm-6.26,8.85a6.64,6.64,0,0,1,12.52,0Z" transform="translate(-11.67 -22.51)"/><path class="cls-1" d="M217.51,33.57a11.07,11.07,0,0,0-11.07-11.06H195.37v31h4.43V44.64l11.07,8.85h6.64l-11.07-8.85A11.07,11.07,0,0,0,217.51,33.57Zm-11.07,6.64H199.8V26.93h6.64a6.64,6.64,0,1,1,0,13.28Z" transform="translate(-11.67 -22.51)"/><rect class="cls-1" x="208.05" y="8.85" width="4.43" height="22.13"/><circle class="cls-1" cx="210.27" cy="4.43" r="2.21"/><path class="cls-1" d="M91.35,31.36a11.07,11.07,0,1,0,11.06,11.07A11.06,11.06,0,0,0,91.35,31.36Zm0,17.71A6.64,6.64,0,1,1,98,42.43,6.64,6.64,0,0,1,91.35,49.07Z" transform="translate(-11.67 -22.51)"/></g></svg>