<?xml version="1.0" encoding="UTF-8"?>
<svg id="Layer_1" data-name="Layer 1" xmlns="http://www.w3.org/2000/svg" viewBox="0 0 314.36 375.31">
  <defs>
    <style>
      .cls-1 {
        stroke-width: 0px;
      }
    </style>
  </defs>
  <path class="cls-1" d="m152.77,127.78c0,22.62-.06,45.24.06,67.87.02,3.51-.94,5.72-4.21,7.47-7.12,3.82-10.34,11.92-8.29,19.5,2.08,7.71,8.9,13.01,16.79,13.04,7.9.03,14.72-5.18,16.89-12.91,2.12-7.56-1.05-15.7-8.13-19.56-3.19-1.74-4.34-3.82-4.33-7.41.1-45.62.07-91.24.07-136.86,0-1-.29-2.21.17-2.95.78-1.27,1.88-2.87,3.14-3.18,1.27-.31,3.11.46,4.28,1.33,1,.75,1.45,2.28,2.06,3.51,26.69,53.37,53.33,106.75,80.11,160.07,1.76,3.5,1.81,6.27.03,9.76-9.7,19.01-19.24,38.11-28.65,57.27-1.32,2.68-2.82,3.45-5.7,3.44-40-.1-80-.1-120,0-2.8,0-4.13-.91-5.35-3.37-9.56-19.36-19.22-38.66-28.99-57.92-1.5-2.95-1.59-5.39-.07-8.41,27.04-53.87,53.98-107.79,80.98-161.69.7-1.4,1.61-2.99,2.86-3.76,3.07-1.89,6.24.5,6.26,4.65.06,10.5.02,21,.02,31.5,0,12.87,0,25.75,0,38.62Z"/>
  <path class="cls-1" d="m301.59,152.77c2.59,0,5.18-.04,7.78.01,3.16.06,4.89,1.68,4.9,4.89.02,8.38.04,16.75-.02,25.13-.02,3.4-1.94,4.91-5.27,4.9-8.13-.03-16.25,0-24.38-.01-3.33,0-5.15-1.57-5.16-5,0-8.25.02-16.5-.01-24.75-.01-3.42,1.69-5.08,5.02-5.15,2.47-.05,4.94,0,7.4,0,.84-59.97-48.61-122.33-117.28-129.39,0,2.22,0,4.39,0,6.56,0,3.21-1.58,4.89-4.81,4.89-8.38.01-16.75,0-25.13,0-3.23,0-4.83-1.65-4.83-4.87,0-2.1,0-4.2,0-6.95-31.24,4.18-57.64,17.1-79.3,39.24-24.42,24.97-37.03,55.13-38.54,90.51,2.99,0,5.46-.04,7.93,0,3.32.06,5.07,1.7,5.06,5.12-.03,8.25,0,16.5-.01,24.75,0,3.41-1.79,5.02-5.13,5.03-8.25,0-16.5.01-24.76,0-3.2,0-4.9-1.68-4.92-4.85-.05-8.38-.03-16.75-.02-25.13,0-3.21,1.7-4.84,4.87-4.91,2.6-.06,5.2-.01,7.8-.01C17.57,90.55,48.33,47.16,105.47,22.14H34.4c-.33.78-.7,1.8-1.17,2.78-3.56,7.4-11.72,11.37-19.69,9.58C5.66,32.75-.08,25.47,0,17.33.08,9.28,5.57,2.41,13.46.49c7.84-1.91,16.21,2.01,19.67,9.47.92,1.97,1.62,3.17,4.18,3.16,33.13-.1,66.26-.07,99.4-.08.86,0,1.72-.12,3.09-.22,0-2.53-.05-4.99.01-7.44.09-3.85,1.39-5.25,5.17-5.28,8.13-.07,16.25-.06,24.38,0,3.77.03,5.12,1.44,5.22,5.24.06,2.36.01,4.72.01,7.49,1.54.08,2.86.22,4.17.22,32.51.01,65.01-.01,97.52.05,2.49,0,3.86-.51,4.99-3.08,3.32-7.54,11.77-11.43,19.6-9.54,8.03,1.94,13.61,9.05,13.49,17.19-.12,8.05-5.75,15.07-13.5,16.83-7.97,1.81-16.31-2.06-19.61-9.58-1.12-2.56-2.47-3.09-4.97-3.08-22.37.08-44.75.05-67.98.05,57.56,25.1,88.31,68.43,93.27,130.89Z"/>
  <path class="cls-1" d="m157.21,331.71c-23.99,0-47.98,0-71.97,0-5.38,0-6.67-1.25-6.69-6.55-.02-7.5-.04-14.99,0-22.49.03-4.39,1.47-5.87,5.87-5.87,48.48-.03,96.95-.03,145.43,0,4.57,0,5.91,1.46,5.94,6.19.04,7.5.04,14.99,0,22.49-.02,4.85-1.41,6.23-6.25,6.23-24.11.01-48.23,0-72.34,0Z"/>
  <path class="cls-1" d="m222.56,340.78c0,10.24.04,20.22-.03,30.19-.02,2.65-1.59,4.1-4.24,4.29-1,.07-2,.04-3,.04-38.75,0-77.51,0-116.26,0-6.56,0-7.26-.72-7.27-7.35,0-8.97,0-17.95,0-27.18h130.79Z"/>
</svg>