<?xml version="1.0" encoding="UTF-8"?>
<svg id="Layer_1" data-name="Layer 1" xmlns="http://www.w3.org/2000/svg" viewBox="0 0 336.17 360.12">
  <defs>
    <style>
      .cls-1 {
        stroke-width: 0px;
      }
    </style>
  </defs>
  <path class="cls-1" d="m70.99,156.6c9.96-18.81,20.17-38.1,30.38-57.39,12.31-23.28,24.61-46.56,36.93-69.83,5.32-10.04,13.68-11.28,21.76-3.2,49.86,49.81,99.71,99.63,149.56,149.45,7.86,7.85,6.66,16.44-3.04,21.62-41.72,22.28-83.46,44.53-125.19,66.78-.76.41-1.55.78-1.96.98-36.15-36.14-72.18-72.16-108.43-108.41Z"/>
  <path class="cls-1" d="m64.85,186.24c28.2,28.22,56.34,56.38,84.69,84.75-.62.68-1.41,1.61-2.27,2.47-9.99,9.97-19.97,19.95-29.99,29.9-15.82,15.7-37.59,15.7-53.34.02-10.62-10.58-21.23-21.17-31.8-31.8-15.35-15.44-15.37-37.3-.02-52.79,10.73-10.83,21.55-21.55,32.34-32.31.17-.16.42-.24.38-.22Z"/>
  <path class="cls-1" d="m125.08,329.12c13.76-13.52,27.82-27.34,42.27-41.54,8.03,8.33,16.62,16.07,23.78,24.97,9.34,11.59,7.27,28.95-3.51,39.22-10.82,10.31-28.07,11.42-39.31,1.45-8.45-7.5-15.78-16.28-23.24-24.09Z"/>
  <path class="cls-1" d="m62.4,333.05c-10.1,4.89-31.18,3.77-45.84-9.39-14.58-13.08-20.42-34.49-13.92-50.46,17.82,22.01,37.87,42.06,59.76,59.85Z"/>
  <path class="cls-1" d="m300.28,49.64c-.77,1.44-1.69,4.59-3.7,6.71-7.82,8.25-15.91,16.25-24.06,24.17-4.91,4.78-12.2,4.57-16.84-.12-4.65-4.7-4.75-11.94.04-16.85,7.94-8.13,16-16.17,24.12-24.12,3.75-3.67,8.34-4.49,13.15-2.38,4.67,2.04,6.94,5.88,7.29,12.59Z"/>
  <path class="cls-1" d="m204.19,23.83c0-4-.09-8,.02-11.99C204.41,5.08,209.67-.03,216.23,0c6.53.03,11.8,5.19,11.91,11.96.13,7.99.12,15.99,0,23.99-.1,6.79-5.31,11.96-11.84,12.03-6.67.07-11.96-5.2-12.11-12.15-.08-4-.02-8-.01-11.99Z"/>
  <path class="cls-1" d="m312.18,107.99c4,0,8-.08,11.99.02,6.76.17,11.95,5.36,11.99,11.88.05,6.54-5.08,11.93-11.81,12.05-8.12.15-16.24.15-24.36,0-6.71-.12-11.85-5.53-11.8-12.06.05-6.56,5.19-11.7,11.99-11.87,4-.1,8-.02,11.99-.02Z"/>
</svg>