<?xml version="1.0" encoding="UTF-8"?>
<svg id="Layer_1" data-name="Layer 1" xmlns="http://www.w3.org/2000/svg" viewBox="0 0 336.15 288.1">
  <defs>
    <style>
      .cls-1 {
        stroke-width: 0px;
      }
    </style>
  </defs>
  <path class="cls-1" d="m168.07,288.09c-43.64,0-87.28.03-130.91-.01-19.24-.02-33.74-12.35-36.77-31.19-.35-2.2-.36-4.48-.36-6.72C0,195.41,0,140.65,0,85.9c0-22.49,15.41-37.82,37.97-37.84,10-.01,20.01-.06,30.01.02,5.73.05,9.78-2.4,12.32-7.51,3.33-6.71,6.66-13.42,10.11-20.06C97.38,7.06,108.48.12,123.62.07c29.63-.09,59.27-.1,88.9,0,15.14.05,26.24,6.99,33.19,20.44,3.27,6.32,6.49,12.67,9.53,19.1,2.76,5.85,7.08,8.62,13.64,8.49,10.12-.21,20.25-.09,30.38-.05,21.11.1,36.81,15.64,36.84,36.7.07,55.51.07,111.01,0,166.52-.03,21.27-15.71,36.77-37.11,36.79-43.64.05-87.28.01-130.91.01Zm-84.03-132.11c-.05,46.11,37.54,83.98,83.47,84.1,46.76.12,84.52-37.44,84.58-84.14.07-45.98-37.66-83.8-83.67-83.89-46.59-.09-84.33,37.46-84.38,83.93Zm216.05-59.95c-.03-6.56-5.37-11.91-11.92-11.96-6.68-.05-12.17,5.5-12.05,12.19.11,6.53,5.55,11.82,12.11,11.77,6.49-.04,11.9-5.51,11.86-12.01Z"/>
  <path class="cls-1" d="m108.04,155.88c.07-33.12,27.08-59.91,60.3-59.81,33.1.1,59.88,27.16,59.74,60.38-.14,32.93-27.09,59.67-60.11,59.64-33.13-.03-59.99-27.02-59.92-60.2Z"/>
</svg>