<?xml version="1.0" encoding="UTF-8"?>
<svg id="Layer_1" data-name="Layer 1" xmlns="http://www.w3.org/2000/svg" viewBox="0 0 22.47 22.42">
  <defs>
    <style>
      .cls-1 {
        stroke-width: 0px;
      }
    </style>
  </defs>
  <path class="cls-1" d="m22.46,11.2c0,.32-.16.53-.42.69-1.16.74-2.32,1.49-3.48,2.24-2.25,1.45-4.51,2.89-6.76,4.35-.4.26-.74.26-1.14,0-3.4-2.2-6.8-4.38-10.2-6.56-.62-.4-.61-.98,0-1.42.32-.23.54-.21.87,0,2.84,1.85,5.7,3.67,8.54,5.51.91.59,1.8.58,2.71,0,2.92-1.88,5.85-3.76,8.77-5.64.17-.11.29-.12.45,0,.11.09.24.15.35.23.2.15.3.35.31.59Z"/>
  <path class="cls-1" d="m22.46,14.95c0,.32-.17.53-.42.69-1.23.79-2.47,1.58-3.7,2.37-2.19,1.41-4.38,2.81-6.56,4.23-.38.25-.71.24-1.1,0-3.4-2.2-6.81-4.39-10.22-6.58-.61-.39-.6-.98-.02-1.41.34-.25.57-.22.91,0,2.83,1.84,5.67,3.65,8.5,5.49.92.6,1.81.6,2.73,0,2.91-1.88,5.83-3.75,8.75-5.63.17-.11.3-.15.47,0,.1.09.24.15.35.23.2.15.3.35.31.59Z"/>
  <path class="cls-1" d="m22.03,6.78c-.69-.45-1.39-.89-2.08-1.34C17.22,3.69,14.5,1.95,11.79.19c-.38-.25-.72-.26-1.1,0-.43.3-.89.58-1.33.86C6.38,2.96,3.41,4.87.44,6.78c-.6.38-.59,1,0,1.39,3.42,2.2,6.84,4.4,10.27,6.6.15.1.33.16.51.24.18-.08.35-.13.5-.23,3.44-2.2,6.87-4.41,10.3-6.62.58-.38.58-.99,0-1.37Zm-13.33,1.65c.21.22.3.47.22.77-.14.52-.8.73-1.2.36-.55-.52-1.06-1.07-1.58-1.63-.24-.26-.22-.68.03-.94.5-.53,1.01-1.06,1.53-1.58.28-.28.73-.27,1.01,0,.29.28.33.72.05,1.03-.31.35-.64.68-.99,1.04.32.33.62.65.92.96Zm3.6-2.16c-.29,1.22-.59,2.44-.88,3.65-.07.31-.2.57-.53.68-.57.19-1.1-.3-.96-.9.25-1.07.51-2.13.77-3.2.13-.55.26-1.11.4-1.66.1-.38.45-.61.83-.56.36.05.65.38.65.81-.08.34-.18.75-.27,1.16Zm3.93,1.75c-.46.49-.93.97-1.4,1.45-.33.34-.79.36-1.1.06-.32-.3-.31-.75.03-1.1.3-.32.6-.63,1-1.04-.34-.3-.67-.56-.97-.85-.35-.34-.36-.82-.04-1.12.31-.29.77-.26,1.1.07.46.47.92.95,1.38,1.43.33.35.33.76,0,1.1Z"/>
</svg>