<?xml version="1.0" encoding="UTF-8"?>
<svg id="Layer_1" data-name="Layer 1" xmlns="http://www.w3.org/2000/svg" viewBox="0 0 384 382.55">
  <defs>
    <style>
      .cls-1 {
        stroke-width: 0px;
      }
    </style>
  </defs>
  <path class="cls-1" d="m384,112.53v242.26c-.43.97-.98,1.91-1.28,2.92-4.39,15.02-17.03,24.79-32.7,24.8-105.35.05-210.7.05-316.05,0-15.64,0-28.33-9.81-32.71-24.79-.3-1.01-.84-1.95-1.27-2.93C0,274.04,0,193.29,0,112.53h384Zm-225.03,213.73c5.03-.3,8.31-3.55,10.46-8.57,17.22-40.31,34.5-80.58,51.76-120.87,4.95-11.56,9.97-23.09,14.83-34.69,2.18-5.21.6-10.57-3.69-13.69-4.1-2.98-9.72-3.05-13.48.4-1.85,1.69-3.28,4.08-4.29,6.41-17.01,39.45-33.92,78.94-50.85,118.42-5.2,12.13-10.44,24.25-15.54,36.43-3.36,8.03,1.89,16.24,10.8,16.16Zm-72.69-89.99c15.12-12.09,29.76-23.75,44.36-35.46,5.69-4.57,6.73-11.31,2.69-16.49-4.05-5.19-10.94-5.76-16.63-1.21-18.25,14.56-36.47,29.14-54.67,43.76-6.79,5.45-6.84,13.33-.11,18.74,18.19,14.62,36.42,29.2,54.66,43.76,5.75,4.59,12.54,4.12,16.65-1.02,4.12-5.14,3.12-11.93-2.5-16.5-5.03-4.1-10.13-8.12-15.2-12.17-9.63-7.69-19.25-15.39-29.27-23.39Zm211.37-.04c-.95.81-1.5,1.31-2.07,1.76-14.03,11.23-28.08,22.45-42.1,33.7-5.89,4.73-6.94,11.49-2.66,16.72,4.16,5.09,10.89,5.49,16.67.88,18.15-14.48,36.3-28.96,54.4-43.5,6.92-5.55,6.88-13.45,0-19.06-4.35-3.55-8.77-7.02-13.16-10.53-13.94-11.14-27.85-22.33-41.85-33.41-5.35-4.24-12.08-3.57-16.06,1.32-4.09,5.02-3.23,11.83,2.08,16.25,1.25,1.04,2.53,2.03,3.8,3.04,13.53,10.84,27.06,21.67,40.95,32.8Z"/>
  <path class="cls-1" d="m384,28.53v61.5H0C0,69.28,0,48.53,0,27.78c.24-.25.6-.47.69-.76C6.42,8.38,17.63.03,36.97.03c96.22,0,192.45,0,288.67,0,8.37,0,16.75-.09,25.12.03,14.36.22,26.91,9.45,31.47,22.97.61,1.82,1.18,3.66,1.77,5.49Zm-90.72,39c10.74,0,21.48.01,32.22,0,7.61-.01,12.7-4.5,12.75-11.18.04-6.69-5.07-11.31-12.61-11.31-21.6-.01-43.21-.01-64.81,0-7.49,0-12.63,4.69-12.56,11.36.07,6.53,5.15,11.11,12.42,11.13,10.86.03,21.73,0,32.59,0ZM56.86,45.03c-6.09.07-11.13,5.21-11.11,11.29.03,6.09,5.11,11.18,11.2,11.21,6.23.03,11.42-5.25,11.29-11.48-.12-6.09-5.29-11.09-11.38-11.02Zm56.38,11.31c.04-6.09-4.99-11.23-11.09-11.31-6.09-.09-11.27,4.91-11.4,10.99-.13,6.24,5.04,11.52,11.27,11.5,6.08-.02,11.18-5.1,11.22-11.18Zm33.74-11.31c-6.09,0-11.19,5.09-11.23,11.17-.04,6.09,4.99,11.23,11.08,11.33,6.24.09,11.48-5.11,11.42-11.36-.06-6.09-5.17-11.15-11.26-11.14Z"/>
</svg>